<svg width="217" height="49" viewBox="0 0 217 49" fill="none" xmlns="http://www.w3.org/2000/svg">
<g filter="url(#filter0_d_69_802)">
<path d="M100.064 40L100.048 31.84L96 38.64H95.264L91.216 31.888V40H89.68V28.8H90.992L95.664 36.672L100.272 28.8H101.584L101.6 40H100.064ZM108.529 40.096C107.687 40.096 106.929 39.9093 106.257 39.536C105.585 39.1627 105.057 38.6507 104.673 38C104.3 37.3387 104.113 36.592 104.113 35.76C104.113 34.928 104.3 34.1867 104.673 33.536C105.057 32.8747 105.585 32.3627 106.257 32C106.929 31.6267 107.687 31.44 108.529 31.44C109.372 31.44 110.124 31.6267 110.785 32C111.457 32.3627 111.98 32.8747 112.353 33.536C112.737 34.1867 112.929 34.928 112.929 35.76C112.929 36.592 112.737 37.3387 112.353 38C111.98 38.6507 111.457 39.1627 110.785 39.536C110.124 39.9093 109.372 40.096 108.529 40.096ZM108.529 38.752C109.073 38.752 109.559 38.6293 109.985 38.384C110.423 38.128 110.764 37.776 111.009 37.328C111.255 36.8693 111.377 36.3467 111.377 35.76C111.377 35.1733 111.255 34.656 111.009 34.208C110.764 33.7493 110.423 33.3973 109.985 33.152C109.559 32.9067 109.073 32.784 108.529 32.784C107.985 32.784 107.495 32.9067 107.057 33.152C106.631 33.3973 106.289 33.7493 106.033 34.208C105.788 34.656 105.665 35.1733 105.665 35.76C105.665 36.3467 105.788 36.8693 106.033 37.328C106.289 37.776 106.631 38.128 107.057 38.384C107.495 38.6293 107.985 38.752 108.529 38.752ZM119.982 39.504C119.758 39.696 119.48 39.8453 119.149 39.952C118.819 40.048 118.477 40.096 118.125 40.096C117.272 40.096 116.611 39.8667 116.141 39.408C115.672 38.9493 115.437 38.2933 115.437 37.44V32.784H113.997V31.52H115.437V29.664H116.973V31.52H119.405V32.784H116.973V37.376C116.973 37.8347 117.085 38.1867 117.309 38.432C117.544 38.6773 117.875 38.8 118.301 38.8C118.771 38.8 119.171 38.6667 119.502 38.4L119.982 39.504ZM125.349 40.096C124.507 40.096 123.749 39.9093 123.077 39.536C122.405 39.1627 121.877 38.6507 121.493 38C121.12 37.3387 120.933 36.592 120.933 35.76C120.933 34.928 121.12 34.1867 121.493 33.536C121.877 32.8747 122.405 32.3627 123.077 32C123.749 31.6267 124.507 31.44 125.349 31.44C126.192 31.44 126.944 31.6267 127.605 32C128.277 32.3627 128.8 32.8747 129.173 33.536C129.557 34.1867 129.749 34.928 129.749 35.76C129.749 36.592 129.557 37.3387 129.173 38C128.8 38.6507 128.277 39.1627 127.605 39.536C126.944 39.9093 126.192 40.096 125.349 40.096ZM125.349 38.752C125.893 38.752 126.379 38.6293 126.805 38.384C127.243 38.128 127.584 37.776 127.829 37.328C128.075 36.8693 128.197 36.3467 128.197 35.76C128.197 35.1733 128.075 34.656 127.829 34.208C127.584 33.7493 127.243 33.3973 126.805 33.152C126.379 32.9067 125.893 32.784 125.349 32.784C124.805 32.784 124.315 32.9067 123.877 33.152C123.451 33.3973 123.109 33.7493 122.853 34.208C122.608 34.656 122.485 35.1733 122.485 35.76C122.485 36.3467 122.608 36.8693 122.853 37.328C123.109 37.776 123.451 38.128 123.877 38.384C124.315 38.6293 124.805 38.752 125.349 38.752ZM133.505 32.944C133.772 32.4533 134.167 32.08 134.689 31.824C135.212 31.568 135.847 31.44 136.593 31.44V32.928C136.508 32.9173 136.391 32.912 136.241 32.912C135.409 32.912 134.753 33.1627 134.273 33.664C133.804 34.1547 133.569 34.8587 133.569 35.776V40H132.033V31.52H133.505V32.944ZM141.141 40.096C140.448 40.096 139.781 40.0053 139.141 39.824C138.501 39.632 138 39.392 137.637 39.104L138.277 37.888C138.65 38.1547 139.104 38.368 139.637 38.528C140.17 38.688 140.709 38.768 141.253 38.768C142.597 38.768 143.269 38.384 143.269 37.616C143.269 37.36 143.178 37.1573 142.997 37.008C142.816 36.8587 142.586 36.752 142.309 36.688C142.042 36.6133 141.658 36.5333 141.157 36.448C140.474 36.3413 139.914 36.2187 139.477 36.08C139.05 35.9413 138.682 35.7067 138.373 35.376C138.064 35.0453 137.909 34.5813 137.909 33.984C137.909 33.216 138.229 32.6027 138.869 32.144C139.509 31.6747 140.368 31.44 141.445 31.44C142.01 31.44 142.576 31.5093 143.141 31.648C143.706 31.7867 144.17 31.9733 144.533 32.208L143.877 33.424C143.184 32.976 142.368 32.752 141.429 32.752C140.778 32.752 140.282 32.8587 139.941 33.072C139.6 33.2853 139.429 33.568 139.429 33.92C139.429 34.1973 139.525 34.416 139.717 34.576C139.909 34.736 140.144 34.8533 140.421 34.928C140.709 35.0027 141.109 35.088 141.621 35.184C142.304 35.3013 142.853 35.4293 143.269 35.568C143.696 35.696 144.058 35.92 144.357 36.24C144.656 36.56 144.805 37.008 144.805 37.584C144.805 38.352 144.474 38.9653 143.813 39.424C143.162 39.872 142.272 40.096 141.141 40.096ZM159.054 40L156.638 36.56C156.339 36.5813 156.104 36.592 155.934 36.592H153.166V40H151.566V28.8H155.934C157.384 28.8 158.526 29.1467 159.358 29.84C160.19 30.5333 160.606 31.488 160.606 32.704C160.606 33.568 160.392 34.304 159.966 34.912C159.539 35.52 158.931 35.9627 158.142 36.24L160.798 40H159.054ZM155.886 35.232C156.899 35.232 157.672 35.0133 158.206 34.576C158.739 34.1387 159.006 33.5147 159.006 32.704C159.006 31.8933 158.739 31.2747 158.206 30.848C157.672 30.4107 156.899 30.192 155.886 30.192H153.166V35.232H155.886ZM170.791 35.808C170.791 35.9253 170.78 36.08 170.759 36.272H163.879C163.975 37.0187 164.3 37.6213 164.855 38.08C165.42 38.528 166.119 38.752 166.951 38.752C167.964 38.752 168.78 38.4107 169.399 37.728L170.247 38.72C169.863 39.168 169.383 39.5093 168.807 39.744C168.241 39.9787 167.607 40.096 166.903 40.096C166.007 40.096 165.212 39.9147 164.519 39.552C163.825 39.1787 163.287 38.6613 162.903 38C162.529 37.3387 162.343 36.592 162.343 35.76C162.343 34.9387 162.524 34.1973 162.887 33.536C163.26 32.8747 163.767 32.3627 164.407 32C165.057 31.6267 165.788 31.44 166.599 31.44C167.409 31.44 168.129 31.6267 168.759 32C169.399 32.3627 169.895 32.8747 170.247 33.536C170.609 34.1973 170.791 34.9547 170.791 35.808ZM166.599 32.736C165.863 32.736 165.244 32.96 164.743 33.408C164.252 33.856 163.964 34.4427 163.879 35.168H169.319C169.233 34.4533 168.94 33.872 168.439 33.424C167.948 32.9653 167.335 32.736 166.599 32.736ZM177.612 31.44C178.689 31.44 179.542 31.7547 180.172 32.384C180.812 33.0027 181.132 33.9147 181.132 35.12V40H179.596V35.296C179.596 34.4747 179.398 33.856 179.004 33.44C178.609 33.024 178.044 32.816 177.308 32.816C176.476 32.816 175.82 33.0613 175.34 33.552C174.86 34.032 174.62 34.7253 174.62 35.632V40H173.084V31.52H174.556V32.8C174.865 32.3627 175.281 32.0267 175.804 31.792C176.337 31.5573 176.94 31.44 177.612 31.44ZM188.902 39.504C188.678 39.696 188.401 39.8453 188.07 39.952C187.739 40.048 187.398 40.096 187.046 40.096C186.193 40.096 185.531 39.8667 185.062 39.408C184.593 38.9493 184.358 38.2933 184.358 37.44V32.784H182.918V31.52H184.358V29.664H185.894V31.52H188.326V32.784H185.894V37.376C185.894 37.8347 186.006 38.1867 186.23 38.432C186.465 38.6773 186.795 38.8 187.222 38.8C187.691 38.8 188.091 38.6667 188.422 38.4L188.902 39.504ZM194.007 31.44C195.18 31.44 196.076 31.728 196.695 32.304C197.324 32.88 197.639 33.7387 197.639 34.88V40H196.183V38.88C195.927 39.2747 195.559 39.5787 195.079 39.792C194.61 39.9947 194.05 40.096 193.399 40.096C192.45 40.096 191.687 39.8667 191.111 39.408C190.546 38.9493 190.263 38.3467 190.263 37.6C190.263 36.8533 190.535 36.256 191.079 35.808C191.623 35.3493 192.487 35.12 193.671 35.12H196.103V34.816C196.103 34.1547 195.911 33.648 195.527 33.296C195.143 32.944 194.578 32.768 193.831 32.768C193.33 32.768 192.839 32.8533 192.359 33.024C191.879 33.184 191.474 33.4027 191.143 33.68L190.503 32.528C190.94 32.176 191.463 31.9093 192.071 31.728C192.679 31.536 193.324 31.44 194.007 31.44ZM193.655 38.912C194.242 38.912 194.748 38.784 195.175 38.528C195.602 38.2613 195.911 37.888 196.103 37.408V36.224H193.735C192.434 36.224 191.783 36.6613 191.783 37.536C191.783 37.9627 191.948 38.2987 192.279 38.544C192.61 38.7893 193.068 38.912 193.655 38.912ZM200.642 28.128H202.178V40H200.642V28.128ZM207.702 40.096C207.009 40.096 206.342 40.0053 205.702 39.824C205.062 39.632 204.561 39.392 204.198 39.104L204.838 37.888C205.212 38.1547 205.665 38.368 206.198 38.528C206.732 38.688 207.27 38.768 207.814 38.768C209.158 38.768 209.83 38.384 209.83 37.616C209.83 37.36 209.74 37.1573 209.558 37.008C209.377 36.8587 209.148 36.752 208.87 36.688C208.604 36.6133 208.22 36.5333 207.718 36.448C207.036 36.3413 206.476 36.2187 206.038 36.08C205.612 35.9413 205.244 35.7067 204.934 35.376C204.625 35.0453 204.47 34.5813 204.47 33.984C204.47 33.216 204.79 32.6027 205.43 32.144C206.07 31.6747 206.929 31.44 208.006 31.44C208.572 31.44 209.137 31.5093 209.702 31.648C210.268 31.7867 210.732 31.9733 211.094 32.208L210.438 33.424C209.745 32.976 208.929 32.752 207.99 32.752C207.34 32.752 206.844 32.8587 206.502 33.072C206.161 33.2853 205.99 33.568 205.99 33.92C205.99 34.1973 206.086 34.416 206.278 34.576C206.47 34.736 206.705 34.8533 206.982 34.928C207.27 35.0027 207.67 35.088 208.182 35.184C208.865 35.3013 209.414 35.4293 209.83 35.568C210.257 35.696 210.62 35.92 210.918 36.24C211.217 36.56 211.366 37.008 211.366 37.584C211.366 38.352 211.036 38.9653 210.374 39.424C209.724 39.872 208.833 40.096 207.702 40.096Z" fill="#7A7363"/>
<path d="M94.573 21.252C93.411 21.252 92.284 21.098 91.192 20.79C90.114 20.468 89.246 20.055 88.588 19.551L89.743 16.989C90.373 17.451 91.122 17.822 91.99 18.102C92.858 18.382 93.726 18.522 94.594 18.522C95.56 18.522 96.274 18.382 96.736 18.102C97.198 17.808 97.429 17.423 97.429 16.947C97.429 16.597 97.289 16.31 97.009 16.086C96.743 15.848 96.393 15.659 95.959 15.519C95.539 15.379 94.965 15.225 94.237 15.057C93.117 14.791 92.2 14.525 91.486 14.259C90.772 13.993 90.156 13.566 89.638 12.978C89.134 12.39 88.882 11.606 88.882 10.626C88.882 9.772 89.113 9.002 89.575 8.316C90.037 7.616 90.73 7.063 91.654 6.657C92.592 6.251 93.733 6.048 95.077 6.048C96.015 6.048 96.932 6.16 97.828 6.384C98.724 6.608 99.508 6.93 100.18 7.35L99.13 9.933C97.772 9.163 96.414 8.778 95.056 8.778C94.104 8.778 93.397 8.932 92.935 9.24C92.487 9.548 92.263 9.954 92.263 10.458C92.263 10.962 92.522 11.34 93.04 11.592C93.572 11.83 94.377 12.068 95.455 12.306C96.575 12.572 97.492 12.838 98.206 13.104C98.92 13.37 99.529 13.79 100.033 14.364C100.551 14.938 100.81 15.715 100.81 16.695C100.81 17.535 100.572 18.305 100.096 19.005C99.634 19.691 98.934 20.237 97.996 20.643C97.058 21.049 95.917 21.252 94.573 21.252ZM112.127 9.072H107.423V6.3H120.233V9.072H115.529V21H112.127V9.072ZM132.841 21.252C131.679 21.252 130.552 21.098 129.46 20.79C128.382 20.468 127.514 20.055 126.856 19.551L128.011 16.989C128.641 17.451 129.39 17.822 130.258 18.102C131.126 18.382 131.994 18.522 132.862 18.522C133.828 18.522 134.542 18.382 135.004 18.102C135.466 17.808 135.697 17.423 135.697 16.947C135.697 16.597 135.557 16.31 135.277 16.086C135.011 15.848 134.661 15.659 134.227 15.519C133.807 15.379 133.233 15.225 132.505 15.057C131.385 14.791 130.468 14.525 129.754 14.259C129.04 13.993 128.424 13.566 127.906 12.978C127.402 12.39 127.15 11.606 127.15 10.626C127.15 9.772 127.381 9.002 127.843 8.316C128.305 7.616 128.998 7.063 129.922 6.657C130.86 6.251 132.001 6.048 133.345 6.048C134.283 6.048 135.2 6.16 136.096 6.384C136.992 6.608 137.776 6.93 138.448 7.35L137.398 9.933C136.04 9.163 134.682 8.778 133.324 8.778C132.372 8.778 131.665 8.932 131.203 9.24C130.755 9.548 130.531 9.954 130.531 10.458C130.531 10.962 130.79 11.34 131.308 11.592C131.84 11.83 132.645 12.068 133.723 12.306C134.843 12.572 135.76 12.838 136.474 13.104C137.188 13.37 137.797 13.79 138.301 14.364C138.819 14.938 139.078 15.715 139.078 16.695C139.078 17.535 138.84 18.305 138.364 19.005C137.902 19.691 137.202 20.237 136.264 20.643C135.326 21.049 134.185 21.252 132.841 21.252ZM146.547 21.168C145.357 21.168 144.286 20.923 143.334 20.433C142.396 19.929 141.661 19.236 141.129 18.354C140.597 17.472 140.331 16.471 140.331 15.351C140.331 14.231 140.597 13.23 141.129 12.348C141.661 11.466 142.396 10.78 143.334 10.29C144.286 9.786 145.357 9.534 146.547 9.534C147.737 9.534 148.801 9.786 149.739 10.29C150.677 10.78 151.412 11.466 151.944 12.348C152.476 13.23 152.742 14.231 152.742 15.351C152.742 16.471 152.476 17.472 151.944 18.354C151.412 19.236 150.677 19.929 149.739 20.433C148.801 20.923 147.737 21.168 146.547 21.168ZM146.547 18.48C147.387 18.48 148.073 18.2 148.605 17.64C149.151 17.066 149.424 16.303 149.424 15.351C149.424 14.399 149.151 13.643 148.605 13.083C148.073 12.509 147.387 12.222 146.547 12.222C145.707 12.222 145.014 12.509 144.468 13.083C143.922 13.643 143.649 14.399 143.649 15.351C143.649 16.303 143.922 17.066 144.468 17.64C145.014 18.2 145.707 18.48 146.547 18.48ZM154.932 5.418H158.208V21H154.932V5.418ZM166.624 21.168C165.434 21.168 164.363 20.923 163.411 20.433C162.473 19.929 161.738 19.236 161.206 18.354C160.674 17.472 160.408 16.471 160.408 15.351C160.408 14.231 160.674 13.23 161.206 12.348C161.738 11.466 162.473 10.78 163.411 10.29C164.363 9.786 165.434 9.534 166.624 9.534C167.814 9.534 168.878 9.786 169.816 10.29C170.754 10.78 171.489 11.466 172.021 12.348C172.553 13.23 172.819 14.231 172.819 15.351C172.819 16.471 172.553 17.472 172.021 18.354C171.489 19.236 170.754 19.929 169.816 20.433C168.878 20.923 167.814 21.168 166.624 21.168ZM166.624 18.48C167.464 18.48 168.15 18.2 168.682 17.64C169.228 17.066 169.501 16.303 169.501 15.351C169.501 14.399 169.228 13.643 168.682 13.083C168.15 12.509 167.464 12.222 166.624 12.222C165.784 12.222 165.091 12.509 164.545 13.083C163.999 13.643 163.726 14.399 163.726 15.351C163.726 16.303 163.999 17.066 164.545 17.64C165.091 18.2 165.784 18.48 166.624 18.48ZM181.876 9.534C183.276 9.534 184.403 9.954 185.257 10.794C186.125 11.634 186.559 12.88 186.559 14.532V21H183.283V15.036C183.283 14.14 183.087 13.475 182.695 13.041C182.303 12.593 181.736 12.369 180.994 12.369C180.168 12.369 179.51 12.628 179.02 13.146C178.53 13.65 178.285 14.406 178.285 15.414V21H175.009V9.702H178.138V11.025C178.572 10.549 179.111 10.185 179.755 9.933C180.399 9.667 181.106 9.534 181.876 9.534ZM195.028 21.168C193.838 21.168 192.767 20.923 191.815 20.433C190.877 19.929 190.142 19.236 189.61 18.354C189.078 17.472 188.812 16.471 188.812 15.351C188.812 14.231 189.078 13.23 189.61 12.348C190.142 11.466 190.877 10.78 191.815 10.29C192.767 9.786 193.838 9.534 195.028 9.534C196.218 9.534 197.282 9.786 198.22 10.29C199.158 10.78 199.893 11.466 200.425 12.348C200.957 13.23 201.223 14.231 201.223 15.351C201.223 16.471 200.957 17.472 200.425 18.354C199.893 19.236 199.158 19.929 198.22 20.433C197.282 20.923 196.218 21.168 195.028 21.168ZM195.028 18.48C195.868 18.48 196.554 18.2 197.086 17.64C197.632 17.066 197.905 16.303 197.905 15.351C197.905 14.399 197.632 13.643 197.086 13.083C196.554 12.509 195.868 12.222 195.028 12.222C194.188 12.222 193.495 12.509 192.949 13.083C192.403 13.643 192.13 14.399 192.13 15.351C192.13 16.303 192.403 17.066 192.949 17.64C193.495 18.2 194.188 18.48 195.028 18.48ZM207.213 21.168C206.275 21.168 205.358 21.056 204.462 20.832C203.566 20.594 202.852 20.3 202.32 19.95L203.412 17.598C203.916 17.92 204.525 18.186 205.239 18.396C205.953 18.592 206.653 18.69 207.339 18.69C208.725 18.69 209.418 18.347 209.418 17.661C209.418 17.339 209.229 17.108 208.851 16.968C208.473 16.828 207.892 16.709 207.108 16.611C206.184 16.471 205.421 16.31 204.819 16.128C204.217 15.946 203.692 15.624 203.244 15.162C202.81 14.7 202.593 14.042 202.593 13.188C202.593 12.474 202.796 11.844 203.202 11.298C203.622 10.738 204.224 10.304 205.008 9.996C205.806 9.688 206.744 9.534 207.822 9.534C208.62 9.534 209.411 9.625 210.195 9.807C210.993 9.975 211.651 10.213 212.169 10.521L211.077 12.852C210.083 12.292 208.998 12.012 207.822 12.012C207.122 12.012 206.597 12.11 206.247 12.306C205.897 12.502 205.722 12.754 205.722 13.062C205.722 13.412 205.911 13.657 206.289 13.797C206.667 13.937 207.269 14.07 208.095 14.196C209.019 14.35 209.775 14.518 210.363 14.7C210.951 14.868 211.462 15.183 211.896 15.645C212.33 16.107 212.547 16.751 212.547 17.577C212.547 18.277 212.337 18.9 211.917 19.446C211.497 19.992 210.881 20.419 210.069 20.727C209.271 21.021 208.319 21.168 207.213 21.168Z" fill="#414141"/>
<circle cx="105" cy="19" r="1.5" stroke="#7A7363"/>
<circle cx="121" cy="19" r="1.5" stroke="#7A7363"/>
</g>
<defs>
<filter id="filter0_d_69_802" x="-4" y="0" width="222" height="55" filterUnits="userSpaceOnUse" color-interpolation-filters="sRGB">
<feFlood flood-opacity="0" result="BackgroundImageFix"/>
<feColorMatrix in="SourceAlpha" type="matrix" values="0 0 0 0 0 0 0 0 0 0 0 0 0 0 0 0 0 0 127 0" result="hardAlpha"/>
<feOffset dy="4"/>
<feGaussianBlur stdDeviation="2"/>
<feColorMatrix type="matrix" values="0 0 0 0 1 0 0 0 0 1 0 0 0 0 1 0 0 0 0.25 0"/>
<feBlend mode="normal" in2="BackgroundImageFix" result="effect1_dropShadow_69_802"/>
<feBlend mode="normal" in="SourceGraphic" in2="effect1_dropShadow_69_802" result="shape"/>
</filter>
</defs>
</svg>
