<svg width="24" height="22" viewBox="0 0 24 22" fill="none" xmlns="http://www.w3.org/2000/svg">
<path d="M24.0592 12.3216L24.0596 12.3215M24.0592 12.3216C24.1761 12.6146 24.0334 12.9469 23.7404 13.0637L23.7403 13.0637L20.8296 14.2231V20.8452C20.8296 21.1607 20.5738 21.4164 20.2584 21.4164H0.471126C0.155718 21.4164 -0.1 21.1607 -0.1 20.8452V8.59596V8.59501L-0.0999954 8.59501C-0.0980662 8.39348 0.0108334 8.20889 0.18473 8.10935C0.241946 8.0381 0.315765 7.98176 0.399899 7.94541L0.402551 7.94426L0.402567 7.9443L18.7836 0.625165C18.7855 0.624341 18.7871 0.623697 18.7884 0.623227M24.0592 12.3216C24.0592 12.3217 24.0593 12.3218 24.0593 12.3219L24.0594 12.322C24.0593 12.3219 24.0593 12.3218 24.0592 12.3216ZM24.0596 12.3215L18.823 0.717082M24.0596 12.3215L24.0576 12.3176M24.0596 12.3215L24.0576 12.3176M18.7884 0.623227C18.7904 0.622473 18.7915 0.622166 18.7912 0.622279L18.823 0.717082M18.7884 0.623227C18.7876 0.623538 18.7868 0.62385 18.786 0.624165L18.823 0.717082M18.7884 0.623227C19.0809 0.508359 19.4115 0.65143 19.5278 0.943714M18.823 0.717082C19.0647 0.620914 19.3387 0.738931 19.4349 0.980677M19.5278 0.943714L19.5278 0.943678L19.4349 0.980677M19.5278 0.943714L24.0576 12.3176M19.5278 0.943714L19.4349 0.980677M19.4349 0.980677L24.0576 12.3176M19.3455 5.58051L19.346 5.58029L19.341 5.5707C19.3307 5.55132 19.3191 5.53253 19.3062 5.51451C19.2365 5.25087 18.9874 5.07329 18.7135 5.0957L18.7125 5.09579C17.7959 5.17934 16.8992 4.79321 16.3301 4.06974L16.3292 4.06862C16.1555 3.85421 15.8535 3.7968 15.614 3.92963C15.5945 3.93262 15.5753 3.93653 15.5563 3.94129L15.5561 3.94042L15.5436 3.94538L5.91335 7.78016C5.91328 7.78018 5.91321 7.78021 5.91314 7.78024C5.79293 7.82743 5.69314 7.914 5.62945 8.02484H3.28792L18.678 1.89688L22.7871 12.2149L20.8296 12.9957V8.59596C20.8296 8.30136 20.6065 8.05884 20.32 8.02812L19.3455 5.58051ZM24.0604 12.3249L24.0594 12.3221C24.0603 12.3243 24.0609 12.3262 24.0608 12.326L24.0608 12.326L24.0608 12.3259L24.0607 12.3257L24.0604 12.3249ZM19.6873 20.2741H1.04225V9.16709H19.6873V20.2741ZM8.38185 8.02719L15.7241 5.10154C16.4271 5.8149 17.3807 6.22605 18.3821 6.2476L19.0897 8.02719H8.38185Z" fill="#7A7363" stroke="#7A7363" stroke-width="0.2"/>
<path d="M2.19157 17.2891L2.19256 17.2894C3.07478 17.5502 3.76513 18.2396 4.02698 19.1215L4.02702 19.1216C4.0992 19.3636 4.32173 19.5294 4.57415 19.5294V19.5296L4.58044 19.5293C4.60199 19.5279 4.62337 19.5252 4.64448 19.5213C4.66237 19.5254 4.68047 19.5287 4.69868 19.531L4.69858 19.5318H4.71128H16.0183V19.5326L16.0312 19.531C16.0468 19.5289 16.0622 19.5262 16.0775 19.5227C16.358 19.577 16.6345 19.4018 16.7028 19.1212L16.7029 19.1212L16.7032 19.1198C16.9652 18.2387 17.655 17.5497 18.5366 17.2889L18.5374 17.2886C18.8002 17.2083 18.9661 16.9511 18.9332 16.6804C18.9381 16.6594 18.9418 16.6382 18.9444 16.617L18.9451 16.617V16.605V12.836H18.9458L18.9444 12.8244C18.9419 12.8028 18.938 12.7813 18.9328 12.7601C18.9656 12.4895 18.7997 12.2325 18.5369 12.1524L18.5361 12.1522C17.6533 11.8911 16.9631 11.2004 16.7027 10.3174L16.7024 10.3165C16.6217 10.052 16.3622 9.8858 16.0901 9.92062C16.0704 9.91598 16.0504 9.91243 16.0303 9.91L16.0304 9.90928H16.0183H4.71128V9.90857L4.69945 9.90998C4.67779 9.91256 4.65624 9.91643 4.63496 9.9216C4.3645 9.88915 4.10771 10.0548 4.02724 10.3173L4.02723 10.3173L4.02696 10.3182C3.76562 11.2008 3.07521 11.8911 2.19254 12.1522L2.19254 12.1522L2.19168 12.1524C1.92876 12.2328 1.76291 12.4902 1.796 12.7611C1.7912 12.7821 1.78757 12.8033 1.78515 12.8249L1.78452 12.8248V12.836V16.605H1.78378L1.78526 16.6172C1.78769 16.637 1.79122 16.6567 1.79584 16.676C1.76105 16.9483 1.92714 17.208 2.19157 17.2891ZM2.92677 13.0943C3.84767 12.7054 4.58062 11.9724 4.96951 11.0515H15.7596C16.1487 11.9724 16.8818 12.7054 17.8028 13.0943V16.3468C16.8822 16.7361 16.1494 17.4689 15.7601 18.3896H4.96948C4.58022 17.4689 3.84739 16.7361 2.92677 16.3468V13.0943Z" fill="#7A7363" stroke="#7A7363" stroke-width="0.2"/>
<path d="M10.3646 17.6473H10.3647C11.9811 17.6473 13.2915 16.337 13.2915 14.7205C13.2915 13.1041 11.9811 11.7938 10.3647 11.7938C8.7483 11.7938 7.43796 13.1041 7.43796 14.7205L7.43796 14.7206C7.43955 16.3363 8.74893 17.6457 10.3646 17.6473ZM10.3647 12.936C11.3503 12.936 12.1492 13.735 12.1492 14.7205C12.1492 15.7061 11.3503 16.5051 10.3647 16.5051C9.37917 16.5051 8.58022 15.7061 8.58022 14.7205C8.58022 13.735 9.37917 12.936 10.3647 12.936Z" fill="#7A7363" stroke="#7A7363" stroke-width="0.2"/>
<path d="M5.1824 15.5273C5.62789 15.5273 5.98909 15.1661 5.98909 14.7206C5.98909 14.2751 5.62789 13.9139 5.1824 13.9139C4.7369 13.9139 4.37571 14.2751 4.37571 14.7206C4.37571 15.1662 4.73691 15.5273 5.1824 15.5273ZM5.1824 14.585C5.25726 14.585 5.31796 14.6457 5.31796 14.7206C5.31796 14.7955 5.25726 14.8562 5.1824 14.8562C5.10754 14.8562 5.04683 14.7955 5.04683 14.7206C5.04683 14.6457 5.10754 14.585 5.1824 14.585Z" fill="#7A7363" stroke="#7A7363" stroke-width="0.2"/>
<path d="M15.5471 15.5273C15.9926 15.5273 16.3538 15.1661 16.3538 14.7206C16.3538 14.2751 15.9926 13.9139 15.5471 13.9139C15.1016 13.9139 14.7405 14.2751 14.7405 14.7206C14.7405 15.1662 15.1017 15.5273 15.5471 15.5273ZM15.5471 14.585C15.622 14.585 15.6827 14.6457 15.6827 14.7206C15.6827 14.7955 15.622 14.8562 15.5471 14.8562C15.4723 14.8562 15.4116 14.7955 15.4116 14.7206C15.4116 14.6457 15.4723 14.585 15.5471 14.585Z" fill="#7A7363" stroke="#7A7363" stroke-width="0.2"/>
</svg>
