<svg width="30" height="30" viewBox="0 0 30 30" fill="none" xmlns="http://www.w3.org/2000/svg">
<path d="M22.0771 6.10352e-05H7.9229C3.48 6.10352e-05 0 3.48006 0 7.92296V22.0772C0 26.5201 3.48 30.0001 7.9229 30.0001H22.0771C26.52 30.0001 30 26.5201 30 22.0772V7.92296C30 3.48006 26.519 6.10352e-05 22.0771 6.10352e-05ZM28.0645 22.0772C28.0645 25.4352 25.4342 28.0646 22.0771 28.0646H7.9229C4.56581 28.0646 1.93548 25.4343 1.93548 22.0772V7.92296C1.93548 4.56587 4.56581 1.93554 7.9229 1.93554H22.0771C25.4352 1.93554 28.0645 4.56587 28.0645 7.92296V22.0772Z" fill="#414141"/>
<path d="M24.4342 7.65966C24.1236 7.43224 23.7075 7.41289 23.3755 7.60644C23.0446 7.80095 22.311 7.89676 21.7226 7.97418C21.6007 7.99063 21.4807 8.00612 21.3645 8.02257C20.541 7.33934 19.4891 6.95612 18.4042 6.95612C15.9607 6.95612 13.9555 8.84708 13.8133 11.2258C11.5971 10.8522 9.56777 9.69676 8.12971 7.96063C7.91584 7.70128 7.5839 7.5745 7.24907 7.61805C6.91616 7.6645 6.63165 7.88031 6.49713 8.18805C6.43519 8.32934 5.89519 9.65805 5.89519 12.9445C5.89519 15.7906 8.14132 17.8819 9.68197 18.9822C8.6281 19.4613 7.41358 19.6374 6.26003 19.5097C5.80906 19.4613 5.38713 19.7264 5.2381 20.1513C5.08906 20.5771 5.25358 21.0493 5.63487 21.2903C7.45423 22.4381 9.55713 23.0448 11.7171 23.0448C18.6539 23.0448 22.852 17.5955 23.0078 12.2226C23.2071 11.9332 23.5875 11.37 24.23 10.3819C24.4875 9.98418 24.7033 9.12676 24.8087 8.6516C24.8929 8.27612 24.7449 7.88612 24.4342 7.65966ZM21.262 11.3429C21.1429 11.5074 21.0781 11.7068 21.0781 11.91C21.0781 15.7297 18.1739 21.1093 11.7181 21.1093C11.1345 21.1093 10.5558 21.0561 9.98874 20.9516C10.7455 20.6651 11.4607 20.2655 12.1178 19.7593C12.381 19.5571 12.5213 19.2319 12.4904 18.9019C12.4594 18.5719 12.261 18.2797 11.9639 18.1297C11.9223 18.1084 7.83165 15.9571 7.83165 12.9455C7.83165 11.9361 7.88584 11.1426 7.95745 10.5387C9.85713 12.1742 12.2745 13.1526 14.8187 13.2784C14.8381 13.2793 14.8584 13.2803 14.8768 13.2793C15.44 13.2629 15.8542 12.8497 15.8542 12.3116C15.8542 12.1781 15.8271 12.0513 15.7778 11.9351C15.7536 11.79 15.741 11.6439 15.741 11.4977C15.741 10.0606 16.9352 8.8916 18.4042 8.8916C19.1416 8.8916 19.851 9.19354 20.3513 9.71902C20.5797 9.95708 20.9136 10.0645 21.2358 10.0016C21.4555 9.95999 21.7091 9.92708 21.9752 9.89225C22.07 9.87966 22.1658 9.86708 22.2636 9.85354C21.5368 10.9606 21.2746 11.3255 21.262 11.3429Z" fill="#414141"/>
</svg>
